<?xml version="1.0" encoding="utf-8"?>
<!-- Generator: Adobe Illustrator 16.0.0, SVG Export Plug-In . SVG Version: 6.00 Build 0)  -->
<!DOCTYPE svg PUBLIC "-//W3C//DTD SVG 1.1//EN" "http://www.w3.org/Graphics/SVG/1.1/DTD/svg11.dtd">
<svg version="1.1" id="Layer_1" xmlns="http://www.w3.org/2000/svg" xmlns:xlink="http://www.w3.org/1999/xlink" x="0px" y="0px"
	 width="1000px" height="800px" viewBox="0 0 1000 800" enable-background="new 0 0 1000 800" xml:space="preserve">
<rect x="130.653" y="204.528" fill="none" width="650.563" height="452.81"/>
<text transform="matrix(1 0 0 1 130.6533 428.5273)"><tspan x="0" y="0" fill="#FFFFFF" font-family="'Lobster1.3'" font-size="260">F</tspan><tspan x="128.699" y="0" fill="#FFFFFF" font-family="'Lobster1.3'" font-size="260" letter-spacing="-7">l</tspan><tspan x="195.778" y="0" fill="#FFFFFF" font-family="'Lobster1.3'" font-size="260">o</tspan><tspan x="304.715" y="0" fill="#FFFFFF" font-family="'Lobster1.3'" font-size="260">ck</tspan><tspan x="524.407" y="0" fill="#FFFFFF" font-family="'Lobster1.3'" font-size="320"> </tspan></text>
<g>
	<path fill="#2E3192" d="M668.777,267.285c0,0-0.398-0.451-1.014-1.262C668.012,266.651,668.343,267.1,668.777,267.285z"/>
	<path fill="#FFFFFF" d="M864.322,448.979c1.728,3.266,21.834,13.177,52.416,27.738c-8.555-7.337-46.221-57.406-56.569-91.186
		c-10.347-33.784-15.306-83.394-51.308-100.817c-17.896-8.66-53.826-51.881-67.442-69.735
		c-13.617-17.854-50.772-19.253-65.404-10.359c-14.631,8.895-9.943,14.123-7.836,19.689c-15.946,18.413-4.113,36.833-0.415,41.713
		c-2.155-5.454,2.286-25.25,6.43-18.335c3.995,6.665,16.245,13.773,18.147,15.208c3.858,3.974,6.906,5.953,30.785,77.012
		c8.425,25.067,22.415,43.182,37.226,56.125c-1.629,5.789-3.853,12.083-6.4,13.339c-9.008-1.182-33.835,25.333-25.506,20.942
		c26.689-17.298,59.169,1.798,59.169,1.798c-4.714-11.28-21.708-20.423-21.708-20.423l3.498-8.406
		c24.402,17.817,48.447,22.754,51.519,22.382C826.259,425.01,847,468,847,468S862.596,445.719,864.322,448.979z"/>
</g>
</svg>
